<svg xmlns="http://www.w3.org/2000/svg" width="256" height="256"><path fill-opacity=".016" d="M0 128.004v128.004l128.25-.254 128.25-.254.254-127.75L257.008 0H0v128.004m.485.496c0 70.4.119 99.053.265 63.672.146-35.38.146-92.98 0-128C.604 29.153.485 58.1.485 128.5" fill="#1976D2" fill-rule="evenodd"/><path fill-opacity=".33" d="M144 6.628c-25.661 25.883-69.915 40.596-112.431 37.38-6.562-.496-12.299-.675-12.75-.396-1.501.928-.844 22.115 1.173 37.823 9.439 73.515 42.5 130.54 97.189 167.64 5.615 3.809 11.133 6.916 12.264 6.905 2.744-.027 17.054-10.41 29.384-21.32 43.231-38.255 70.301-90.578 77.693-150.173C238.401 69.34 238.546 43 236.75 43c-19.517.002-30.892-.897-37.25-2.944-18.583-5.982-33.477-17.891-43.217-34.556-1.608-2.75-3.566-5.096-4.353-5.214-.786-.118-4.355 2.736-7.93 6.342m2.5 6.048c-12.214 10.97-30.39 21.985-45.935 27.836-19.897 7.489-47.16 11.279-68.958 9.585l-7.894-.613.616 13.508c1.045 22.907 5.513 46.413 13.307 70.008 5.195 15.728 17.696 41.824 25.867 54 16.133 24.038 36.05 43.767 59.461 58.898 6.179 3.994 6.443 4.067 8.951 2.485 13.259-8.362 36.548-29.94 48.982-45.385 20.736-25.756 35.6-55.189 43.553-86.241 4.692-18.321 6.554-31.425 7.249-51.007l.594-16.75h-10.518c-27.478 0-53.72-13.881-67.582-35.748-1.481-2.337-2.918-4.23-3.193-4.209-.275.022-2.3 1.657-4.5 3.633m-1.5 6.368c-16.606 15.034-40.537 26.62-66.352 32.123-8.402 1.791-13.657 2.178-30.537 2.248l-20.388.085.578 15c1.839 47.709 20.255 98.125 48.558 132.939 12.15 14.945 29.393 30.34 45.918 40.999l7.276 4.693 5.224-3.764c14.201-10.236 31.316-26.391 42.765-40.367 2.929-3.575 8.868-11.9 13.199-18.5 22.607-34.456 35.597-75.063 37.433-117.017l.613-14.016-9.394-.095c-17.639-.178-36.479-6.714-49.4-17.138-5.207-4.201-12.026-11.596-17.993-19.515l-2-2.654-5.5 4.979m-33.324 42.358c-.53 1.382.067 2.598 1.276 2.598.341 0 .619-.9.619-2 0-2.306-1.106-2.655-1.895-.598m44.247 1.848c-.633 2.069-.559 3.75.165 3.75.502 0 .912-.477.912-1.059s.45-.781 1-.441 1-.084 1-.941c0-1.218-2.747-2.387-3.077-1.309m-43.416 9.739c-.35.566.051.734.941.393 1.732-.665 2.049-1.382.611-1.382-.518 0-1.216.445-1.552.989m48.306 3.694c.721.289 1.584.253 1.916-.079.332-.332-.258-.568-1.312-.525-1.165.048-1.402.285-.604.604M100 80c-.901.582-1.025.975-.309.985.655.008 1.469-.435 1.809-.985.767-1.242.421-1.242-1.5 0m-12.333 4.167c-2.297 2.505-1.88 2.873 1.333 1.18 1.375-.725 2.05-1.377 1.5-1.451-.55-.073.35-.476 2-.896l3-.763-3-.035c-1.758-.021-3.759.793-4.833 1.965M85 152.845c0 .465.817 1.584 1.815 2.487 1.552 1.405 3.466 1.552 13.25 1.019 10.738-.586 13.935-1.383 13.935-3.473 0-.483-6.525-.878-14.5-.878s-14.5.38-14.5.845m35.649.683c.752 1.96 3.585 3.469 6.535 3.482 1.781.008 3.706 2.03 8.333 8.75 5.243 7.616 6.434 8.78 9.257 9.054 3.941.382 5.409-2.103 2.743-4.642-1.35-1.284-1.868-1.371-2.236-.375-.512 1.388-7.931-7.561-11.639-14.039-2.081-3.635-2.306-3.743-7.861-3.75-4.72-.007-5.616.259-5.132 1.52m25.351-.063c0 2.513 3.407 3.639 5.845 1.931C155.076 153.133 154.46 152 150 152c-2.846 0-4 .423-4 1.465m15.186.264c.184.951 1.553 2.159 3.043 2.683 2.144.754 3.135.569 4.741-.885 3.104-2.809 2.485-3.527-3.043-3.527-4.271 0-5.021.274-4.741 1.729M92.5 168c-1.327 2.146.909 3 7.859 3 6.701 0 9.641-.976 9.641-3.2 0-1.171-16.771-.979-17.5.2" fill="#1976D2" fill-rule="evenodd"/><path fill-opacity=".221" d="M144.126 7.071c-18.515 17.541-45.56 30.793-72.093 35.326C59.598 44.521 39.626 45.369 29 44.223c-4.675-.504-9.127-.688-9.894-.408-1.148.42-1.275 3.086-.72 15.097C21.4 124.169 45.242 182.33 85.461 222.536c10.855 10.852 26.872 23.646 38.045 30.392 5.629 3.398 5.705 3.413 8.836 1.712 12.256-6.657 38.696-30.538 52.146-47.098 27.649-34.044 45.12-74.42 51.05-117.981.894-6.566 1.701-19.616 1.794-29L237.5 43.5l-8.522.329c-16.656.643-33.845-3.379-46.618-10.906-8.062-4.751-20.142-17.018-25.282-25.673-2.368-3.988-4.592-7.231-4.942-7.208-.35.023-3.955 3.186-8.01 7.029m.082 6.886C127.556 29.489 103.263 41.301 76 47.122c-8.87 1.894-13.72 2.252-31.249 2.31l-20.749.068-.001 9.538c-.004 38.74 13.976 86.709 35.638 122.275 10.763 17.673 28.723 38.399 44.329 51.157 7.924 6.477 23.994 17.53 25.489 17.53 2.545 0 23.993-17.436 35.05-28.493 34.955-34.956 57.039-78.07 65.056-127.007.901-5.5 1.93-17.928 2.288-27.618l.649-17.617-12.5-.564c-17.82-.805-31.004-4.874-43.675-13.482-7.473-5.076-16.938-14.67-21.359-21.651-1.906-3.009-3.691-5.474-3.966-5.476-.275-.002-3.331 2.638-6.792 5.865m-6.336.793c-1.243 1.586-1.208 1.621.378.378 1.666-1.307 2.195-2.128 1.372-2.128-.207 0-.995.787-1.75 1.75m-4 3c-1.243 1.586-1.208 1.621.378.378 1.666-1.307 2.195-2.128 1.372-2.128-.207 0-.995.788-1.75 1.75m17.631 3.437c-.525 2.756-1.371 3.928-3.352 4.644-1.458.527-5.73 3.433-9.494 6.459-8.49 6.826-24.897 15.41-38.392 20.086-15.48 5.364-29.197 7.736-48.296 8.354l-16.53.534-2.771-3.632c-4.599-6.03-5.045-5.039-4.332 9.618 3.589 73.81 38.417 138.701 93.516 174.237 8.694 5.607 8.304 5.681 20.587-3.912 37.807-29.526 66.334-73.448 78.482-120.834 4.727-18.439 7.991-41.331 8.053-56.491.031-7.37-1.109-7.941-5.638-2.825-2.774 3.133-3.409 3.384-7.434 2.946-16.128-1.754-28.805-5.61-37.797-11.497-2.808-1.838-5.105-3.577-5.105-3.865 0-.288 2.137-.359 4.75-.158l4.75.366-6-4.053c-6.943-4.689-13.109-10.386-19.662-18.164l-4.633-5.5-.702 3.687m-23.3.242c-4.645 3.284-5.298 4.223-1.376 1.977 1.83-1.049 3.797-2.468 4.372-3.156 1.478-1.767.785-1.494-2.996 1.179m11.8 2.604c-3.334 2.926-3.942 3.84-2.348 3.533 4.191-.807 8.345-3.591 8.345-5.592 0-2.75-.852-2.458-5.997 2.059m-20.253 2.539c-3.738 2.028-3.511 2.873.25.928 1.65-.853 3-1.765 3-2.026 0-.643-.107-.607-3.25 1.098m-17.25 8.5c-2.2 1.058-2.875 1.643-1.5 1.301 2.831-.705 8.03-3.311 6.5-3.259-.55.019-2.8.9-5 1.958m-6.705 2.466c-.296.296-5.658 1.851-11.916 3.455-6.259 1.604-10.479 2.935-9.379 2.959 2.487.053 20.115-4.623 22.354-5.93.905-.529 1.159-.975.563-.992-.596-.016-1.326.212-1.622.508M196.5 41.536c1.65.756 3.675 1.36 4.5 1.343.825-.017-.075-.638-2-1.379-4.566-1.758-6.362-1.732-2.5.036m7.25 2.126c.688.278 1.813.278 2.5 0 .688-.277.125-.504-1.25-.504s-1.937.227-1.25.504M68.269 44.693c.973.254 2.323.237 3-.037.677-.274-.119-.481-1.769-.461-1.65.02-2.204.244-1.231.498m140.981-.004c.963.252 2.537.252 3.5 0 .963-.251.175-.457-1.75-.457s-2.713.206-1.75.457m23.5-.027c.688.278 1.813.278 2.5 0 .688-.277.125-.504-1.25-.504s-1.937.227-1.25.504m-210.5 1.054c1.513.229 3.988.229 5.5 0 1.513-.229.275-.416-2.75-.416s-4.262.187-2.75.416m37.5-.01c1.237.238 3.263.238 4.5 0 1.237-.239.225-.434-2.25-.434s-3.487.195-2.25.434m160.026.027c2.352.212 5.952.209 8-.006s.124-.388-4.276-.384c-4.4.003-6.076.179-3.724.39M37.292 46.742c3.735.193 9.585.192 13-.003 3.414-.194.358-.352-6.792-.35-7.15.001-9.944.161-6.208.353m73.358 11.093c-.91 1.005-1.316 2.166-.902 2.579.414.414.302.611-.248.437-1.365-.43-5.5 3.277-5.5 4.93 0 .735-.45 1.059-1 .719-.55-.34-1-.141-1 .441s-.787 1.095-1.75 1.138c-1.056.048-1.252.28-.494.585 1.909.77.431 2.339-1.538 1.633-.945-.339-1.394-.257-.998.181 1.029 1.137-3.047 6.526-4.511 5.964C91.159 75.847 82 83.739 82 85.67c0 .797-.385 1.21-.856.919-.47-.291-.643.583-.383 1.941.336 1.759 1.123 2.47 2.733 2.47 1.244 0 2.811.663 3.484 1.474 1.057 1.273 1.582 1.284 3.873.076 1.457-.769 3.549-2.128 4.649-3.021 1.922-1.56 1.873-1.599-1.25-.997-2.13.411-3.25.235-3.25-.512 0-.626.419-.879.931-.563.512.317 1.213.118 1.559-.441.345-.559 1.7-1.016 3.01-1.016 1.31 0 2.668-.462 3.017-1.028.408-.66-.553-.842-2.691-.508l-3.326.519 3.802-1.93c2.092-1.062 5.017-2.098 6.5-2.304l2.698-.373-2.5-1.054c-1.975-.833-3.232-.662-5.985.812C94.509 82.011 89 82.674 89 81.218c0-.43 1.166-.878 2.591-.996 1.425-.118 4.133-.946 6.017-1.84 2.158-1.024 4.566-1.397 6.51-1.008 2.264.452 3.888.046 6.099-1.528 1.657-1.18 4.423-2.482 6.148-2.893 3.036-.725 3.049-.752.432-.851-3.014-.114-7.797 1.762-7.797 3.059 0 .461-1.602.839-3.559.839-4.129 0-3.782-1.957.368-2.079 1.607-.047 2.091-.314 1.202-.663-.947-.371-.038-1.007 2.5-1.749 2.194-.64 3.87-1.711 3.725-2.379-.193-.888.242-.945 1.612-.212 1.351.724 2.404.612 3.764-.398 1.594-1.185 1.689-1.684.609-3.211-.704-.995-1.535-2.565-1.849-3.49-.317-.938-1.194-1.441-1.982-1.138-.933.358-1.224.049-.856-.909.306-.799-.07-1.972-.837-2.608-1.083-.9-1.761-.75-3.047.671m43.023 3.984c-1.486 1.551-2.357 3.198-1.937 3.661.42.462.252.548-.373.191-.625-.357-1.64-.043-2.255.699-1.682 2.027 2.196 6.625 4.976 5.898 1.542-.404 1.745-.755.779-1.352-1.967-1.216-.312-2.226 1.801-1.099 1.01.538 2.961 1.137 4.336 1.331 2.817.397 5.589 2.597 4.563 3.622-.371.371-2.787.741-5.369.822-6.067.19-6.001.154-3.498 1.908 1.193.836 2.914 1.203 3.887.83 1.111-.426 1.506-.283 1.087.395-1.107 1.791 1.964 2.219 4.28.598 2.949-2.066 3.716-.989 1.133 1.594-1.592 1.592-1.73 2.083-.583 2.083.825 0 1.5.498 1.5 1.107s-.603.875-1.341.593c-.737-.283-1.975-.064-2.75.487-1.116.793-1.045.884.341.439.963-.31 1.75-.108 1.75.449s.787.88 1.75.719c1.019-.171 1.75.332 1.75 1.206 0 .874-.731 1.377-1.75 1.206-2.418-.406-2.188.461.609 2.294 2.389 1.565 6.119 1.082 5.046-.653-.321-.519-1.127-.585-1.791-.146-.665.44-.35.012.7-.951 1.115-1.023 1.395-1.75.674-1.75-.972 0-.97-.317.012-1.5.685-.825.829-1.5.321-1.5-.509 0-.969-1.566-1.023-3.48-.089-3.146-4.487-10.619-9.027-15.341-.699-.727-1.271-1.939-1.271-2.694 0-1.252-3.63-4.485-5.035-4.485-.325 0-1.806 1.269-3.292 2.819m5.14 6.864c.721.289 1.584.253 1.916-.079.332-.332-.258-.568-1.312-.525-1.165.048-1.402.285-.604.604m-70.832 17.84c-1.057 1.273-.995 1.42.378.893.902-.347 1.641-1.032 1.641-1.523 0-1.286-.579-1.105-2.019.63m57.501 2.604c-2.74 2.27-6.885 5.692-9.211 7.603l-4.229 3.476-6.271-5.386c-8.109-6.966-10.356-8.655-9.404-7.07.504.838.073 1.25-1.308 1.25-1.164 0-2.059.652-2.059 1.5 0 .825.425 1.5.945 1.5s2.882 2.087 5.25 4.637a741.63 741.63 0 0 0 5.397 5.771c2.762 2.866 3.339 5.246 1.804 7.437-1.029 1.468-1.134 2.155-.33 2.155.905 0 .905.33-.001 1.421-.969 1.168-.807 1.324.91.875 1.148-.3 2.54-1.39 3.092-2.421s1.55-1.861 2.218-1.843c1.42.037 6.712 4.501 6.721 5.67.004.439 1.383 1.581 3.065 2.539 1.682.957 2.778 2.195 2.435 2.75-.343.555.008 1.009.779 1.009 2.423 0 13.239 10.204 12.969 12.236-.142 1.072.291 1.727 1.03 1.557.701-.161 1.406.157 1.567.707.657 2.252 3.61 4.5 5.912 4.5 2.144 0 2.371-.329 1.801-2.602-.359-1.431-2.096-3.779-3.859-5.217C156.586 126.559 150.123 119 152.58 119c.319 0 4.594 3.406 9.5 7.568 4.906 4.162 8.92 7.326 8.92 7.031 0-.579-25.205-22.218-28.5-24.467-1.1-.751.655 1.092 3.9 4.095 5.315 4.919 5.687 5.517 3.75 6.023-1.409.369-2.15.102-2.15-.776 0-1.809-5.131-5.295-7-4.755-1.046.302-1.139.176-.306-.417.891-.635.675-1.67-.848-4.076-1.123-1.775-2.496-3.226-3.051-3.226-.555 0-.746-.685-.424-1.523.482-1.258.226-1.332-1.472-.423-2.61 1.397-4.471.689-5.165-1.965-.452-1.727-.179-1.99 1.611-1.552 1.642.402 4.239-1.278 10.905-7.053 7.692-6.664 9.512-8.484 8.482-8.484-.148 0-2.51 1.857-5.25 4.127m-36.673 30.982c-7.87 6.659-14.487 12.622-14.705 13.25-.218.627.457.436 1.5-.425 11.39-9.411 27.425-23.172 27.906-23.95 1.41-2.281-1.136-.355-14.701 11.125m2.001 3.537c-5.121 4.085-9.46 7.861-9.643 8.391-.184.529-.955.963-1.715.963-.76 0-1.829.836-2.376 1.858-.812 1.517-.523 2.073 1.577 3.03 3.53 1.608 5.797-.14 4.204-3.243-.908-1.767-.869-1.925.221-.895.727.688 1.907 1.25 2.622 1.25.715 0 1.303-.562 1.306-1.25.004-.687 1.418-2.053 3.143-3.035 2.987-1.701 3.046-1.852 1.244-3.173-1.743-1.277-1.627-1.373 1.469-1.215 2.697.139 3.54-.294 4.259-2.187.725-1.909.608-2.25-.612-1.782-2.518.966-1.689-1.008 1.241-2.957 1.513-1.006 3.537-1.704 4.5-1.552 2.373.375 2.227-.491-.19-1.123-1.359-.355-4.731 1.719-11.25 6.92m-25.893 26.768c-.229.228-.286 9.003-.125 19.5L85.084 189H95v-14h14.799l.363-4.571c.2-2.513.17-4.763-.066-5-.89-.889-12.005-.386-12.596.571-1.287 2.083-2.5.87-2.5-2.5V160h18.799l.363-4.571c.2-2.513.17-4.763-.066-5-.551-.551-28.625-.565-29.179-.015m34.814.189c-.332.331-.182 1.711.333 3.065.515 1.354.936 9.858.936 18.897V189h7.934l.283-11.195.283-11.195 7.51 10.945 7.511 10.945 4.739.305 4.74.305v-37.86c0-.412-2.137-.75-4.75-.75-3.741 0-4.661.319-4.333 1.5.23.825.617 4.762.86 8.75.456 7.487-.565 9.341-2.478 4.5l-1.086-2.75-.107 2.489c-.089 2.087-.84 1.396-4.647-4.279-2.497-3.723-4.24-7.256-3.872-7.851.368-.596.049-1.475-.709-1.955-1.555-.985-12.22-1.229-13.147-.301m39.894.195c-.271.439-.08 1.451.426 2.25.505.798.925 9.214.934 18.702L161 189h10v-17.918c0-9.855.273-18.63.607-19.5.512-1.335-.337-1.582-5.441-1.582-3.326 0-6.27.359-6.541.798m-4.753 81.952c-1.243 1.586-1.208 1.621.378.378 1.666-1.307 2.195-2.128 1.372-2.128-.207 0-.995.787-1.75 1.75m-12 10c-1.243 1.586-1.208 1.621.378.378 1.666-1.307 2.195-2.128 1.372-2.128-.207 0-.995.787-1.75 1.75m-4 3c-1.243 1.586-1.208 1.621.378.378 1.666-1.307 2.195-2.128 1.372-2.128-.207 0-.995.787-1.75 1.75m-10.059 5.933c.721.289 1.584.253 1.916-.079.332-.332-.258-.568-1.312-.525-1.165.048-1.402.285-.604.604" fill="#1976D2" fill-rule="evenodd"/><path fill-opacity=".893" d="M145.469 6.25 139.5 12.5l6.475-6c3.562-3.3 6.674-6.113 6.917-6.25.243-.138.015-.25-.507-.25-.521 0-3.634 2.813-6.916 6.25m1.933 1.321c-25.053 23.4-55.63 36.735-89.902 39.207-13.969 1.008-36.386.024-37.416-1.643-2.537-4.104-1.59 24.84 1.425 43.577 9.085 56.462 30.787 100.852 66.164 135.337 12.862 12.538 19.158 17.634 32.603 26.393l8.776 5.718 4.293-2.516c8.61-5.046 23.434-17.304 35.172-29.084 34.903-35.027 57.168-78.224 65.491-127.06 2.387-14.008 4.128-42.789 3.024-50-.42-2.75-.825-4.212-.898-3.25-.119 1.558-1.401 1.75-11.676 1.75-24.268 0-41.37-6.623-57.182-22.143-3.452-3.389-6.276-6.642-6.276-7.23 0-.588 3.037 1.843 6.75 5.402l6.75 6.471-6.2-6.5c-3.41-3.575-8.179-9.524-10.598-13.221l-4.397-6.721-5.903 5.513m7.617.429c1.985 3.924 5.15 8.164 5.691 7.623.271-.27-.766-2.209-2.304-4.307-3.854-5.26-4.876-6.261-3.387-3.316M145 13.131c-7.521 6.894-22.869 17.001-33.056 21.77C88.697 45.784 62.067 50.93 35.75 49.624L23 48.992l.026 6.254c.098 23.891 7.058 59.879 16.513 85.394 6.757 18.235 18.151 39.876 28.619 54.36 3.782 5.233 3.805 5.307.469 1.524-1.929-2.187-6.346-8.639-9.817-14.337-3.47-5.698-7.117-11.333-8.103-12.523-.986-1.19 1.152 2.725 4.75 8.701C59.056 184.34 62 189.426 62 189.666c0 .911 12.574 17.129 18.407 23.741 9.072 10.283 24.651 23.778 37.388 32.385 12.884 8.706 10.284 8.779 23.688-.666 11.113-7.831 37.482-34.321 46.911-47.126 9.749-13.239 21.015-32.493 20.222-34.56-.339-.882-.17-1.283.394-.934.543.336 2.563-2.847 4.489-7.073 4.447-9.759 4.405-10.789-.101-2.433-4.086 7.576-3.858 6.494.89-4.228 1.882-4.251 3.785-7.401 4.227-7 .443.4.478.16.078-.535-.4-.695.198-3.735 1.328-6.756 6.797-18.167 11.768-45.483 12.736-69.981l.631-16-11.894-.155c-18.375-.24-32.923-4.838-46.93-14.833-6.812-4.861-16.01-14.501-20.267-21.239-1.483-2.348-2.922-4.25-3.197-4.226-.275.024-2.975 2.312-6 5.084m9.51 9.853c-.867 1.402.083 2.676 2.457 3.297 1.684.441 1.843.233 1.01-1.323-1.305-2.44-2.691-3.229-3.467-1.974M140 34.116C117.318 50.392 89.747 59.66 57.064 61.995c-15.628 1.117-21.993.36-25.62-3.048-1.34-1.258-2.692-2.032-3.005-1.719-.802.801 1.316 26.39 3.126 37.772 7.513 47.254 28.354 89.885 58.955 120.599 9.687 9.723 25.739 22.538 35.106 28.028l4.488 2.63 4.693-3.299c28.899-20.312 53.876-50.298 70.215-84.295 14.006-29.142 20.888-56.423 23.566-93.413.369-5.087.339-9.25-.065-9.25s-2.504 1.401-4.665 3.113c-3.786 2.998-4.177 3.087-10.644 2.435-23.485-2.371-43.405-11.854-56.838-27.06-3.152-3.568-6.214-6.484-6.804-6.48-.589.005-4.897 2.753-9.572 6.108M94.567 72.107c-14.951 13.766-17.292 16.31-16.102 17.5.766.766 2.099 1.393 2.964 1.393.864 0 1.571.723 1.571 1.607 0 .954.56 1.392 1.378 1.078.758-.291 1.83-.077 2.382.475.922.922 4.742-.462 6.24-2.26.275-.33 1.547-1.152 2.828-1.827 1.365-.719 2.103-1.81 1.786-2.638-.298-.776-.221-1.363.172-1.305.393.059 1.782.054 3.086-.012 1.992-.099 2.173-.359 1.128-1.618-.928-1.118-.944-1.5-.063-1.5.649 0 .903-.45.563-1-.352-.569.509-1 2-1 3.274 0 2.456-1.584-1.176-2.278-1.558-.298-3.686.124-5.015.995-1.27.832-2.309 1.146-2.309.698 0-.448-.505-.31-1.122.307-.617.617-1.771.873-2.564.568-2.318-.889 8.086-3.958 11.907-3.512 2.499.291 4.463-.302 7.243-2.189 2.098-1.424 4.904-2.589 6.235-2.589 1.358 0 2.148-.439 1.801-1-1.085-1.755-5.106-1.078-8.905 1.5-2.026 1.375-4.676 2.461-5.889 2.414-1.913-.074-1.843-.195.523-.908 1.502-.452 3.446-1.538 4.32-2.413.875-.874 2.797-1.838 4.271-2.142 6.461-1.33 8.546-2.05 8.886-3.069.397-1.191-8.349-11.382-9.767-11.382-.482 0-8.749 7.248-18.372 16.107m56.611-8.787c-5.38 5.447-6.151 8.68-2.071 8.68 1.041 0 1.893.466 1.893 1.035 0 .697.604.712 1.847.047 1.282-.686 2.244-.621 3.147.215 1.034.957 1.183.868.728-.434-.432-1.235-.1-1.513 1.353-1.133 1.059.277 1.925.887 1.925 1.355 0 .469.629.611 1.399.315.769-.295 1.712-.03 2.094.589.496.802-.91.987-4.899.645-3.077-.264-5.586-.177-5.576.193.011.37 2.148 2.037 4.75 3.705 3.569 2.287 4.673 3.577 4.494 5.25-.155 1.438.306 2.218 1.309 2.218.851 0 1.269.45.929 1-.34.55.17 1 1.132 1 1.58 0 1.562.143-.191 1.468-1.689 1.278-1.723 1.473-.258 1.5.925.018 1.945.86 2.266 1.872.321 1.012 1.666 2.419 2.988 3.126 1.545.827 2.191 1.839 1.81 2.834-.444 1.157-.151 1.377 1.161.874.966-.371 2.281-.688 2.924-.706.642-.017.357-.647-.635-1.399-1.23-.933-1.414-1.497-.579-1.775 2.135-.712 1.046-8.886-2.337-17.544-1.774-4.537-3.575-8.25-4.003-8.25-.428 0-.778-.61-.778-1.355 0-1.225-9.754-10.632-11.034-10.641-.294-.002-2.898 2.39-5.788 5.316m-8.103 27.262c-5.612 4.72-10.738 8.356-11.39 8.08-.652-.276-4.681-3.452-8.954-7.057-7.532-6.356-12.622-9.855-11.357-7.81.338.548-.058 1.253-.88 1.569-.86.33-1.494 1.83-1.494 3.534 0 2.419 1.373 4.194 7.5 9.7 4.125 3.707 7.5 7.049 7.5 7.428 0 .379-6.975 6.624-15.5 13.878-8.525 7.255-15.5 13.864-15.5 14.688 0 2.096 4.534 6.408 6.737 6.408 1.006 0 8.339-6.069 16.296-13.487 7.957-7.417 15.04-13.492 15.741-13.5.701-.007 8.002 6.287 16.226 13.987 10.267 9.613 15.673 14 17.254 14 3.666 0 6.746-2.737 6.746-5.996 0-2.463-1.863-4.46-12.77-13.694-7.023-5.945-14.336-12.041-16.25-13.545l-3.48-2.735 8.755-8.265C156.967 89.541 158.976 86 154.933 86c-1.613 0-1.928-.44-1.433-2 .349-1.1.442-2 .207-2-.235 0-5.019 3.862-10.632 8.582m74.592 53.085c-.367.366-.667 1.131-.667 1.7 0 .626.466.567 1.183-.15.651-.651.951-1.416.667-1.7-.284-.285-.817-.217-1.183.15M84.25 149.662c-1.484.599-1.689 3.338-.25 3.338.63 0 1 6.667 1 18v18h11v-14h14.799l.424-4.75c.234-2.613.269-4.947.08-5.188-.912-1.157-12.423-1.207-13.805-.06-1.266 1.05-1.498.836-1.498-1.38V161h18v-3.8c0-2.09.559-4.359 1.242-5.042.988-.988.938-1.433-.25-2.184-1.518-.96-28.459-1.233-30.742-.312m34.5.73c-2.146 1.629-2.24 2.608-.25 2.608 1.278 0 1.5 2.667 1.5 18v18h8.932l.284-10.75.284-10.75 7.403 10.75 7.403 10.75H154v-18.417c0-13.796.314-18.544 1.25-18.924 2.286-.927-1.494-2.627-5.878-2.644-4.15-.015-7.54 2.145-5.421 3.455.581.359 1.032 3.858 1.01 7.839-.039 7.074-.062 7.138-1.452 3.941-1.691-3.891-2.936-4.264-2.25-.674.586 3.063.126 2.611-4.603-4.53-2.656-4.01-3.287-5.671-2.384-6.269.913-.606.73-1.195-.713-2.296-2.441-1.862-12.394-1.922-14.809-.089m40.79-.045c-1.277.934-1.489 1.566-.691 2.059.799.494 1.151 6.198 1.151 18.653V189h11.916l.292-19.25c.182-12.023-.083-19.526-.708-19.985-1.696-1.246-10.014-.841-11.96.582M205 168c-1.122 2.2-1.816 4-1.541 4 .275 0 1.419-1.8 2.541-4 1.122-2.2 1.816-4 1.541-4-.275 0-1.419 1.8-2.541 4m-4 7c-.589 1.1-.845 2-.57 2s.981-.9 1.57-2c.589-1.1.845-2 .57-2s-.981.9-1.57 2m-3 5c-.589 1.1-.845 2-.57 2s.981-.9 1.57-2c.589-1.1.845-2 .57-2s-.981.9-1.57 2m-9.128 13.75c-1.243 1.586-1.208 1.621.378.378 1.666-1.307 2.195-2.128 1.372-2.128-.207 0-.995.787-1.75 1.75m-3 4c-1.243 1.586-1.208 1.621.378.378 1.666-1.307 2.195-2.128 1.372-2.128-.207 0-.995.787-1.75 1.75M73.5 203c.995 1.1 2.035 2 2.31 2 .275 0-.315-.9-1.31-2-.995-1.1-2.035-2-2.31-2-.275 0 .315.9 1.31 2m108.372-.25c-1.243 1.586-1.208 1.621.378.378 1.666-1.307 2.195-2.128 1.372-2.128-.207 0-.995.787-1.75 1.75M76 206.313c0 .172 1.463 1.635 3.25 3.25l3.25 2.937-2.937-3.25c-2.738-3.029-3.563-3.71-3.563-2.937m101.405 1.937-1.905 2.25 2.25-1.905c1.238-1.048 2.25-2.06 2.25-2.25 0-.8-.805-.209-2.595 1.905m-12.427 13.5-8.478 8.75 8.75-8.478c8.127-7.874 9.206-9.022 8.478-9.022-.15 0-4.087 3.938-8.75 8.75m-78.02-3.5c4.144 4.415 5.042 5.209 5.042 4.458 0-.16-2.138-2.298-4.75-4.75L82.5 213.5l4.458 4.75M98 228.5c1.292 1.375 2.574 2.5 2.849 2.5.275 0-.557-1.125-1.849-2.5-1.292-1.375-2.574-2.5-2.849-2.5-.275 0 .557 1.125 1.849 2.5m6 4.878c0 .207.787.995 1.75 1.75 1.586 1.243 1.621 1.208.378-.378-1.307-1.666-2.128-2.195-2.128-1.372m46.872 1.372c-1.243 1.586-1.208 1.621.378.378.963-.755 1.75-1.543 1.75-1.75 0-.823-.821-.294-2.128 1.372" fill="#1976D2" fill-rule="evenodd"/></svg>